<svg xmlns="http://www.w3.org/2000/svg" viewBox="0 0 512 512" width="512" height="512">
  <defs>
    <filter id="badgeShadow" x="-30%" y="-30%" width="160%" height="160%">
      <feDropShadow dx="0" dy="8" stdDeviation="12" flood-color="#0F172A" flood-opacity="0.28"/>
      <feDropShadow dx="0" dy="2" stdDeviation="4" flood-color="#000000" flood-opacity="0.15"/>
    </filter>
  </defs>

  <!-- 背景 -->
  <rect width="512" height="512" rx="115" fill="#3474CC"/>

  <!-- 三棟大樓(與 index.svg 一致,右移 8px) -->
  <g fill="#FFFFFF" transform="translate(8,0)">
    <rect x="56"  y="98"  width="100" height="377"/>
    <rect x="52"  y="90"  width="108" height="14"/>

    <rect x="196" y="98"  width="100" height="377"/>
    <rect x="192" y="90"  width="108" height="14"/>

    <rect x="336" y="98"  width="100" height="377"/>
    <rect x="332" y="90"  width="108" height="14"/>
  </g>

  <!-- 左棟窗格 -->
  <g fill="#3474CC" transform="translate(78,133)">
    <rect x="0" y="0"   width="18" height="22"/><rect x="27" y="0"   width="18" height="22"/><rect x="54" y="0"   width="18" height="22"/>
    <rect x="0" y="32"  width="18" height="22"/><rect x="27" y="32"  width="18" height="22"/><rect x="54" y="32"  width="18" height="22"/>
    <rect x="0" y="64"  width="18" height="22"/><rect x="27" y="64"  width="18" height="22"/><rect x="54" y="64"  width="18" height="22"/>
    <rect x="0" y="96"  width="18" height="22"/><rect x="27" y="96"  width="18" height="22"/><rect x="54" y="96"  width="18" height="22"/>
    <rect x="0" y="128" width="18" height="22"/><rect x="27" y="128" width="18" height="22"/><rect x="54" y="128" width="18" height="22"/>
    <rect x="0" y="160" width="18" height="22"/><rect x="27" y="160" width="18" height="22"/><rect x="54" y="160" width="18" height="22"/>
    <rect x="0" y="192" width="18" height="22"/><rect x="27" y="192" width="18" height="22"/><rect x="54" y="192" width="18" height="22"/>
    <rect x="0" y="224" width="18" height="22"/><rect x="27" y="224" width="18" height="22"/><rect x="54" y="224" width="18" height="22"/>
    <rect x="0" y="256" width="18" height="22"/><rect x="27" y="256" width="18" height="22"/><rect x="54" y="256" width="18" height="22"/>
    <rect x="0" y="288" width="18" height="22"/><rect x="27" y="288" width="18" height="22"/><rect x="54" y="288" width="18" height="22"/>
  </g>

  <!-- 中棟窗格 -->
  <g fill="#3474CC" transform="translate(218,133)">
    <rect x="0" y="0"   width="18" height="22"/><rect x="27" y="0"   width="18" height="22"/><rect x="54" y="0"   width="18" height="22"/>
    <rect x="0" y="32"  width="18" height="22"/><rect x="27" y="32"  width="18" height="22"/><rect x="54" y="32"  width="18" height="22"/>
    <rect x="0" y="64"  width="18" height="22"/><rect x="27" y="64"  width="18" height="22"/><rect x="54" y="64"  width="18" height="22"/>
    <rect x="0" y="96"  width="18" height="22"/><rect x="27" y="96"  width="18" height="22"/><rect x="54" y="96"  width="18" height="22"/>
    <rect x="0" y="128" width="18" height="22"/><rect x="27" y="128" width="18" height="22"/><rect x="54" y="128" width="18" height="22"/>
    <rect x="0" y="160" width="18" height="22"/><rect x="27" y="160" width="18" height="22"/><rect x="54" y="160" width="18" height="22"/>
    <rect x="0" y="192" width="18" height="22"/><rect x="27" y="192" width="18" height="22"/><rect x="54" y="192" width="18" height="22"/>
    <rect x="0" y="224" width="18" height="22"/><rect x="27" y="224" width="18" height="22"/><rect x="54" y="224" width="18" height="22"/>
    <rect x="0" y="256" width="18" height="22"/><rect x="27" y="256" width="18" height="22"/><rect x="54" y="256" width="18" height="22"/>
    <rect x="0" y="288" width="18" height="22"/><rect x="27" y="288" width="18" height="22"/><rect x="54" y="288" width="18" height="22"/>
  </g>

  <!-- 右棟窗格 -->
  <g fill="#3474CC" transform="translate(358,133)">
    <rect x="0" y="0"   width="18" height="22"/><rect x="27" y="0"   width="18" height="22"/><rect x="54" y="0"   width="18" height="22"/>
    <rect x="0" y="32"  width="18" height="22"/><rect x="27" y="32"  width="18" height="22"/><rect x="54" y="32"  width="18" height="22"/>
    <rect x="0" y="64"  width="18" height="22"/><rect x="27" y="64"  width="18" height="22"/><rect x="54" y="64"  width="18" height="22"/>
    <rect x="0" y="96"  width="18" height="22"/><rect x="27" y="96"  width="18" height="22"/><rect x="54" y="96"  width="18" height="22"/>
    <rect x="0" y="128" width="18" height="22"/><rect x="27" y="128" width="18" height="22"/><rect x="54" y="128" width="18" height="22"/>
    <rect x="0" y="160" width="18" height="22"/><rect x="27" y="160" width="18" height="22"/><rect x="54" y="160" width="18" height="22"/>
    <rect x="0" y="192" width="18" height="22"/><rect x="27" y="192" width="18" height="22"/><rect x="54" y="192" width="18" height="22"/>
    <rect x="0" y="224" width="18" height="22"/><rect x="27" y="224" width="18" height="22"/><rect x="54" y="224" width="18" height="22"/>
    <rect x="0" y="256" width="18" height="22"/><rect x="27" y="256" width="18" height="22"/><rect x="54" y="256" width="18" height="22"/>
    <rect x="0" y="288" width="18" height="22"/><rect x="27" y="288" width="18" height="22"/><rect x="54" y="288" width="18" height="22"/>
  </g>

  <!-- 徽章:書籍借閱(米色圓圈+攤開的書) -->
  <g id="badge">
    <circle cx="370" cy="385" r="122" fill="#FFFFFF" filter="url(#badgeShadow)"/>
    <circle cx="370" cy="385" r="108" fill="#D9BE93"/>
    <path d="M370 345 L370 430 C370 430 335 415 305 422 L305 355 C335 345 370 345 370 345 Z" fill="#F5EFE0"/>
    <path d="M370 345 L370 430 C370 430 405 415 435 422 L435 355 C405 345 370 345 370 345 Z" fill="#F5EFE0"/>
    <g stroke="#8A6A45" stroke-width="4" stroke-linecap="round">
      <line x1="316" y1="368" x2="358" y2="362"/>
      <line x1="316" y1="384" x2="358" y2="379"/>
      <line x1="316" y1="400" x2="358" y2="396"/>
      <line x1="382" y1="362" x2="424" y2="368"/>
      <line x1="382" y1="379" x2="424" y2="384"/>
      <line x1="382" y1="396" x2="424" y2="400"/>
    </g>
  </g>
</svg>
