<svg xmlns="http://www.w3.org/2000/svg" viewBox="0 0 512 512" width="512" height="512">
  <defs>
    <filter id="badgeShadow" x="-30%" y="-30%" width="160%" height="160%">
      <feDropShadow dx="0" dy="8" stdDeviation="12" flood-color="#0F172A" flood-opacity="0.28"/>
      <feDropShadow dx="0" dy="2" stdDeviation="4" flood-color="#000000" flood-opacity="0.15"/>
    </filter>
  </defs>

  <!-- 背景 -->
  <rect width="512" height="512" rx="115" fill="#3474CC"/>

  <!-- 三棟大樓(與 index.svg 一致,右移 8px) -->
  <g fill="#FFFFFF" transform="translate(8,0)">
    <rect x="56"  y="98"  width="100" height="377"/>
    <rect x="52"  y="90"  width="108" height="14"/>

    <rect x="196" y="98"  width="100" height="377"/>
    <rect x="192" y="90"  width="108" height="14"/>

    <rect x="336" y="98"  width="100" height="377"/>
    <rect x="332" y="90"  width="108" height="14"/>
  </g>

  <!-- 左棟窗格 -->
  <g fill="#3474CC" transform="translate(78,133)">
    <rect x="0" y="0"   width="18" height="22"/><rect x="27" y="0"   width="18" height="22"/><rect x="54" y="0"   width="18" height="22"/>
    <rect x="0" y="32"  width="18" height="22"/><rect x="27" y="32"  width="18" height="22"/><rect x="54" y="32"  width="18" height="22"/>
    <rect x="0" y="64"  width="18" height="22"/><rect x="27" y="64"  width="18" height="22"/><rect x="54" y="64"  width="18" height="22"/>
    <rect x="0" y="96"  width="18" height="22"/><rect x="27" y="96"  width="18" height="22"/><rect x="54" y="96"  width="18" height="22"/>
    <rect x="0" y="128" width="18" height="22"/><rect x="27" y="128" width="18" height="22"/><rect x="54" y="128" width="18" height="22"/>
    <rect x="0" y="160" width="18" height="22"/><rect x="27" y="160" width="18" height="22"/><rect x="54" y="160" width="18" height="22"/>
    <rect x="0" y="192" width="18" height="22"/><rect x="27" y="192" width="18" height="22"/><rect x="54" y="192" width="18" height="22"/>
    <rect x="0" y="224" width="18" height="22"/><rect x="27" y="224" width="18" height="22"/><rect x="54" y="224" width="18" height="22"/>
    <rect x="0" y="256" width="18" height="22"/><rect x="27" y="256" width="18" height="22"/><rect x="54" y="256" width="18" height="22"/>
    <rect x="0" y="288" width="18" height="22"/><rect x="27" y="288" width="18" height="22"/><rect x="54" y="288" width="18" height="22"/>
  </g>

  <!-- 中棟窗格 -->
  <g fill="#3474CC" transform="translate(218,133)">
    <rect x="0" y="0"   width="18" height="22"/><rect x="27" y="0"   width="18" height="22"/><rect x="54" y="0"   width="18" height="22"/>
    <rect x="0" y="32"  width="18" height="22"/><rect x="27" y="32"  width="18" height="22"/><rect x="54" y="32"  width="18" height="22"/>
    <rect x="0" y="64"  width="18" height="22"/><rect x="27" y="64"  width="18" height="22"/><rect x="54" y="64"  width="18" height="22"/>
    <rect x="0" y="96"  width="18" height="22"/><rect x="27" y="96"  width="18" height="22"/><rect x="54" y="96"  width="18" height="22"/>
    <rect x="0" y="128" width="18" height="22"/><rect x="27" y="128" width="18" height="22"/><rect x="54" y="128" width="18" height="22"/>
    <rect x="0" y="160" width="18" height="22"/><rect x="27" y="160" width="18" height="22"/><rect x="54" y="160" width="18" height="22"/>
    <rect x="0" y="192" width="18" height="22"/><rect x="27" y="192" width="18" height="22"/><rect x="54" y="192" width="18" height="22"/>
    <rect x="0" y="224" width="18" height="22"/><rect x="27" y="224" width="18" height="22"/><rect x="54" y="224" width="18" height="22"/>
    <rect x="0" y="256" width="18" height="22"/><rect x="27" y="256" width="18" height="22"/><rect x="54" y="256" width="18" height="22"/>
    <rect x="0" y="288" width="18" height="22"/><rect x="27" y="288" width="18" height="22"/><rect x="54" y="288" width="18" height="22"/>
  </g>

  <!-- 右棟窗格 -->
  <g fill="#3474CC" transform="translate(358,133)">
    <rect x="0" y="0"   width="18" height="22"/><rect x="27" y="0"   width="18" height="22"/><rect x="54" y="0"   width="18" height="22"/>
    <rect x="0" y="32"  width="18" height="22"/><rect x="27" y="32"  width="18" height="22"/><rect x="54" y="32"  width="18" height="22"/>
    <rect x="0" y="64"  width="18" height="22"/><rect x="27" y="64"  width="18" height="22"/><rect x="54" y="64"  width="18" height="22"/>
    <rect x="0" y="96"  width="18" height="22"/><rect x="27" y="96"  width="18" height="22"/><rect x="54" y="96"  width="18" height="22"/>
    <rect x="0" y="128" width="18" height="22"/><rect x="27" y="128" width="18" height="22"/><rect x="54" y="128" width="18" height="22"/>
    <rect x="0" y="160" width="18" height="22"/><rect x="27" y="160" width="18" height="22"/><rect x="54" y="160" width="18" height="22"/>
    <rect x="0" y="192" width="18" height="22"/><rect x="27" y="192" width="18" height="22"/><rect x="54" y="192" width="18" height="22"/>
    <rect x="0" y="224" width="18" height="22"/><rect x="27" y="224" width="18" height="22"/><rect x="54" y="224" width="18" height="22"/>
    <rect x="0" y="256" width="18" height="22"/><rect x="27" y="256" width="18" height="22"/><rect x="54" y="256" width="18" height="22"/>
    <rect x="0" y="288" width="18" height="22"/><rect x="27" y="288" width="18" height="22"/><rect x="54" y="288" width="18" height="22"/>
  </g>

  <!-- 徽章:好物分享(青色圓圈+禮物盒與愛心) -->
  <g id="badge">
    <circle cx="370" cy="385" r="122" fill="#FFFFFF" filter="url(#badgeShadow)"/>
    <circle cx="370" cy="385" r="108" fill="#0AAE9A"/>
    <g fill="none" stroke="#FFFFFF" stroke-width="9" stroke-linecap="round" stroke-linejoin="round">
      <rect x="320" y="392" width="100" height="52" rx="8"/>
      <line x1="370" y1="392" x2="370" y2="444"/>
      <path d="M370 372 C362 358 340 360 340 378 C340 392 356 400 370 388 C384 400 400 392 400 378 C400 360 378 358 370 372 Z"/>
    </g>
  </g>
</svg>
